<?xml version="1.0" encoding="UTF-8" standalone="no"?>
<!DOCTYPE svg PUBLIC "-//W3C//DTD SVG 1.1//EN" "http://www.w3.org/Graphics/SVG/1.1/DTD/svg11.dtd">
<!-- Created with Vectornator (http://vectornator.io/) -->
<svg height="100%" stroke-miterlimit="10" style="fill-rule:nonzero;clip-rule:evenodd;stroke-linecap:round;stroke-linejoin:round;" version="1.1" viewBox="0 0 256 256" width="100%" xml:space="preserve" xmlns="http://www.w3.org/2000/svg" xmlns:vectornator="http://vectornator.io" xmlns:xlink="http://www.w3.org/1999/xlink">
<defs>
<linearGradient gradientTransform="matrix(256 0 0 256 -5.68434e-14 128)" gradientUnits="userSpaceOnUse" id="LinearGradient" x1="0" x2="1" y1="0" y2="0">
<stop offset="0" stop-color="#000000" stop-opacity="0.308333"/>
<stop offset="0.997933" stop-color="#000000" stop-opacity="0"/>
</linearGradient>
</defs>
<clipPath id="ArtboardFrame">
<rect height="256" width="256" x="0" y="0"/>
</clipPath>
<g clip-path="url(#ArtboardFrame)" id="Layer-1" vectornator:layerName="Layer 1">
<path d="M-4.16711e-15 128C-1.42109e-14 57.3076 57.3076-1.42109e-14 128-1.33469e-14L128-1.33469e-14C198.692-1.42109e-14 256 57.3076 256 128L256 128C256 198.692 198.692 256 128 256L128 256C57.3076 256 1.42109e-14 198.692-4.16711e-15 128L-4.16711e-15 128Z" fill="#4bbc2c" fill-rule="nonzero" opacity="1" stroke="none" vectornator:layerName="Rectangle 1"/>
<path d="M-4.16711e-15 128C-1.42109e-14 57.3076 57.3076-1.42109e-14 128-1.33469e-14L128-1.33469e-14C198.692-1.42109e-14 256 57.3076 256 128L256 128C256 198.692 198.692 256 128 256L128 256C57.3076 256 1.42109e-14 198.692-4.16711e-15 128L-4.16711e-15 128Z" fill="url(#LinearGradient)" fill-rule="nonzero" opacity="1" stroke="none" vectornator:layerName="Rectangle 2"/>
<g opacity="1" vectornator:layerName="radar.svg">
<path d="M47.7528 128C47.7528 172.324 83.676 208.247 128 208.247C172.324 208.247 208.247 172.324 208.247 128L188.185 128C188.185 156.181 168.845 179.816 142.702 186.367C141.228 193.138 135.21 198.216 128 198.216C120.79 198.216 114.772 193.138 113.298 186.367C92.7665 181.195 76.4036 165.49 70.3537 145.335C63.2067 144.175 57.7837 137.968 57.7837 130.508C57.7837 123.517 62.5484 117.624 69.0371 115.963C74.6168 88.472 98.879 67.8146 128 67.8146C141.918 67.8146 154.707 72.5166 164.895 80.4473L179.158 66.1846C165.271 54.6804 147.466 47.7528 128 47.7528C83.676 47.7528 47.7528 83.676 47.7528 128ZM79.0994 116.809C84.2716 119.192 87.8764 124.426 87.8764 130.508C87.8764 136.087 84.8358 140.977 80.3219 143.579C85.4941 159.472 98.4088 171.885 114.615 176.368C117.091 171.478 122.17 168.155 128.031 168.155C133.893 168.155 138.94 171.509 141.448 176.368C162.607 170.475 178.154 151.04 178.154 128L158.093 128C158.093 144.614 144.614 158.093 128 158.093C111.386 158.093 97.9073 144.614 97.9073 128C97.9073 111.386 111.386 97.9073 128 97.9073C133.58 97.9073 138.815 99.4119 143.297 102.076C148.124 97.249 152.921 92.453 157.748 87.6256C149.41 81.4817 139.128 77.8455 128 77.8455C104.145 77.8455 84.1775 94.4905 79.0994 116.809Z" fill="#ffffff" fill-rule="nonzero" opacity="1" stroke="none" vectornator:layerName="path"/>
<path d="M203.545 63.1126C206.492 60.166 206.492 55.4014 203.545 52.4861C200.599 49.5709 195.834 49.5396 192.919 52.4861L135.868 109.537C133.454 108.502 130.821 107.938 128.031 107.938C116.966 107.938 107.97 116.935 107.97 128C107.97 139.065 116.966 148.062 128.031 148.062C139.097 148.062 148.093 139.065 148.093 128C148.093 125.21 147.529 122.577 146.494 120.163L203.545 63.1126Z" fill="#ffdd09" fill-rule="nonzero" opacity="1" stroke="none" vectornator:layerName="path"/>
</g>
</g>
</svg>
